# AST/ASF file generated using VICON BodyLanguage
# -----------------------------------------------
:version 1.10
:name VICON
:units
  mass 1.0
  length 0.45
  angle deg
:documentation
   .ast/.asf automatically generated from VICON data using
   VICON BodyBuilder and BodyLanguage model FoxedUp or BRILLIANT.MOD
:root
   order TX TY TZ RX RY RZ
   axis XYZ
   position 0 0 0  
   orientation 0 0 0 
:bonedata
  begin
     id 1 
     name lhipjoint
     direction 0.576517 -0.752066 0.319413 
     length 2.45433 
     axis 0 0 0  XYZ
  end
  begin
     id 2 
     name lfemur
     direction 0.34202 -0.939693 0  
     length 7.54459  
     axis 0 0 20  XYZ
    dof rx ry rz
    limits (-160.0 20.0)
           (-70.0 70.0)
           (-60.0 70.0)
  end
  begin
     id 3 
     name ltibia
     direction 0.34202 -0.939693 0   
     length 7.73986   
     axis 0 0 20   XYZ
    dof rx
    limits (-10.0 170.0)
  end
  begin
     id 4 
     name lfoot
     direction 0.090693 -0.249177 0.964202   
     length 2.28437   
     axis -90 7.62852e-016 20   XYZ
    dof rx rz
    limits (-45.0 90.0)
           (-70.0 20.0)
  end
  begin
     id 5 
     name ltoes
     direction 1.5356e-011 -4.21928e-011 1   
     length 1.14243   
     axis -90 7.62852e-016 20   XYZ
    dof rx
    limits (-90.0 20.0)
  end
  begin
     id 6 
     name rhipjoint
     direction -0.573937 -0.753736 0.320122   
     length 2.44889  
     axis 0 0 0  XYZ 
  end
  begin
     id 7 
     name rfemur
     direction -0.34202 -0.939693 0   
     length 7.50166   
     axis 0 0 -20   XYZ
    dof rx ry rz
    limits (-160.0 20.0)
           (-70.0 70.0)
           (-70.0 60.0)
  end
  begin
     id 8 
     name rtibia
     direction -0.34202 -0.939693 0   
     length 7.54266   
     axis 0 0 -20   XYZ
    dof rx
    limits (-10.0 170.0)
 end
 begin
     id 9 
     name rfoot
     direction -0.114017 -0.31326 0.942798   
     length 2.34212  
     axis -90 -7.62852e-016 -20   XYZ
    dof rx rz
    limits (-45.0 90.0)
           (-20.0 70.0)
  end
  begin
     id 10 
     name rtoes
     direction -1.53557e-011 -4.21867e-011 1   
     length 1.16246   
     axis -90 -7.62852e-016 -20   XYZ
    dof rx
    limits (-90.0 20.0)
  end
  begin
     id 11 
     name lowerback
     direction -0.0228371 0.999155 -0.034167   
     length 2.0537   
     axis 0 0 0   XYZ
    dof rx ry rz
    limits (-20.0 45.0)
           (-30.0 30.0)
           (-30.0 30.0)
  end
  begin
     id 12 
     name upperback
     direction 0.0198981 0.999794 0.00389455   
     length 2.05302   
     axis 0 0 0   XYZ
    dof rx ry rz
    limits (-20.0 45.0)
           (-30.0 30.0)
           (-30.0 30.0)
  end
  begin
     id 13 
     name thorax
     direction 0.0304566 0.99935 0.0192987   
     length 2.05315   
     axis 0 0 0   XYZ
    dof rx ry rz
    limits (-20.0 45.0)
           (-30.0 30.0)
           (-30.0 30.0)
  end
  begin
     id 14 
     name lowerneck
     direction -0.0196762 0.99417 0.106017   
     length 1.82056   
     axis 0 0 0   XYZ
    dof rx ry rz
    limits (-20.0 45.0)
           (-30.0 30.0)
           (-30.0 30.0)
  end
  begin
     id 15 
     name upperneck
     direction 0.00517787 0.9802 -0.197944   
     length 1.83835   
     axis 0 0 0   XYZ
    dof rx ry rz
    limits (-20.0 45.0)
           (-30.0 30.0)
           (-30.0 30.0)
  end
  begin
     id 16
     name head
     direction 0.00211419 0.996945 -0.078081  
     length 1.85629  
     axis 0 0 0   XYZ
    dof rx ry rz
    limits (-20.0 45.0)
           (-30.0 30.0)
           (-30.0 30.0)
  end
  begin
     id 17 
     name lclavicle
     direction 0.930001 0.365811 -0.0357824  
     length 3.81961  
     axis 0 0 0   XYZ
    dof ry rz
    limits (-20.0 10.0)
           (0.0 20.0)
  end
  begin
     id 18 
     name lhumerus
     direction 1 -4.48968e-011 -3.06644e-027   
     length 5.14507   
     axis 180 -30 -90   XYZ
    dof rx ry rz
    limits (-60.0 90.0)
           (-90.0 90.0)
           (-90.0 90.0)
  end
  begin
     id 19
     name lradius
     direction 1 -4.48965e-011 9.06925e-028   
     length 3.50646   
     axis 180 -30 -90   XYZ
    dof rx
    limits (-10.0 170.0)
  end
  begin
     id 20
     name lwrist
     direction 1 -4.48957e-011 1.03922e-027   
     length 1.75323   
     axis -2.56395e-016 90 90   XYZ
    dof ry
    limits (-180.0 0.0)
 end
  begin
     id 21 
     name lhand
     direction 1 -4.48967e-011 2.08017e-027   
     length 0.629969   
     axis -1.32723e-015 90 90   XYZ
    dof rx rz
    limits (-90.0 90.0)
           (-45.0 45.0)
  end
  begin
     id 22 
     name lfingers
     direction 1 -4.49089e-011 4.20095e-027   
     length 0.507897   
     axis -2.6545e-015 90 90   XYZ
    dof rx
    limits (0.0 90.0)
  end
  begin
     id 23
     name lthumb
     direction 0.707107 -6.35001e-011 0.707107   
     length 0.729241   
     axis -90 45 5.05613e-014   XYZ
    dof rx rz
    limits (-45.0 45.0)
           (-45.0 45.0)
  end
  begin
     id 24 
     name rclavicle
     direction -0.881882 0.464123 -0.0829113   
     length 3.47515  
     axis 0 0 0   XYZ 
    dof ry rz
    limits (-10.0 20.0)
           (-20.0 0.0)
  end
  begin
     id 25 
     name rhumerus
     direction -1 -4.48961e-011 -1.55672e-027  
     length 5.232   
     axis 180 30 90   XYZ
    dof rx ry rz
    limits (-90.0 60.0)
           (-90.0 90.0)
           (-90.0 90.0)
  end
  begin
     id 26 
     name rradius
     direction -1 -4.48963e-011 6.18178e-029   
     length 3.65641   
     axis 180 30 90   XYZ
    dof rx
    limits (-10.0 170.0)
  end
  begin
     id 27 
     name rwrist
     direction -1 -4.48982e-011 1.04136e-027   
     length 1.8282   
     axis -2.56395e-016 -90 -90   XYZ
    dof ry
    limits (-180.0 0.0)
  end
  begin
     id 28
     name rhand
     direction -1 -4.48929e-011 2.07378e-027   
     length 0.656807   
     axis -1.32723e-015 -90 -90   XYZ
    dof rx rz
    limits (-90.0 90.0)
           (-45.0 45.0)
  end
  begin
     id 29
     name rfingers
     direction -1 -4.489e-011 4.13816e-027   
     length 0.529535   
     axis -2.6545e-015 -90 -90   XYZ
    dof rx
    limits (0.0 90.0)
  end
  begin
     id 30
     name rthumb
     direction -0.707107 -6.34843e-011 0.707107   
     length 0.760309   
     axis -90 -45 -5.05613e-014   XYZ
    dof rx rz
    limits (-45.0 45.0)
           (-45.0 45.0)
  end
:hierarchy
  begin
    root lhipjoint rhipjoint lowerback
    lhipjoint lfemur
    lfemur ltibia
    ltibia lfoot
    lfoot ltoes
    rhipjoint rfemur
    rfemur rtibia
    rtibia rfoot
    rfoot rtoes
    lowerback upperback
    upperback thorax
    thorax lowerneck lclavicle rclavicle
    lowerneck upperneck
    upperneck head
    lclavicle lhumerus
    lhumerus lradius
    lradius lwrist
    lwrist lhand lthumb
    lhand lfingers
    rclavicle rhumerus
    rhumerus rradius
    rradius rwrist
    rwrist rhand rthumb
    rhand rfingers
  end

#!OML:ASF H:\ManfredETheater\Project 1\Capture day 1\Session 1\subject.ASF
:FULLY-SPECIFIED
:DEGREES
17
root 17.3669 14.7506 36.7926 -156.515 -21.9347 181.695
lowerback 18.8546 3.13268 3.89913
upperback -0.772794 4.98893 0.467557
thorax -11.159 2.08846 -3.07442
lowerneck -17.175 -3.43919 -4.86393
upperneck 10.3581 -2.85611 -7.00156
head 5.93096 -2.29049 -1.75745
rclavicle -3.57812e-015 -1.27222e-014
rhumerus -14.0147 25.2702 -79.0305
rradius 91.2265
rwrist -1.50965
rhand -20.5182 1.19248
rfingers 7.12502
rthumb 5.83957 -28.7071
lclavicle -3.57812e-015 -1.27222e-014
lhumerus -56.3148 2.59529 60.4594
lradius 59.2938
lwrist 10.0976
lhand -21.1768 -1.63803
lfingers 7.12502
lthumb 5.20367 28.2781
rfemur -20.7273 -9.79552 22.4152
rtibia 55.1668
rfoot -34.2553 -16.7825
rtoes -49.4296
lfemur -64.6544 13.1601 -18.4745
ltibia 98.8614
lfoot -10.0246 -2.50924
ltoes -12.0913
18
root 17.2803 14.7272 36.3566 -156.742 -22.8988 181.521
lowerback 18.3065 3.26801 3.81847
upperback -0.862738 5.09277 -0.0450844
thorax -10.8971 2.14546 -3.58344
lowerneck -16.9948 -3.9519 -5.22393
upperneck 11.2424 -3.48749 -6.29688
head 6.19224 -2.56503 -1.55066
rclavicle -5.96354e-014 1.74931e-014
rhumerus -13.622 25.8662 -78.3211
rradius 94.1728
rwrist -1.6692
rhand -20.9458 1.97862
rfingers 7.12502
rthumb 5.42667 -27.9319
lclavicle -5.96354e-014 1.74931e-014
lhumerus -57.8896 0.998569 57.441
lradius 61.4827
lwrist 8.99887
lhand -20.686 -2.46788
lfingers 7.12502
lthumb 5.67748 27.4361
rfemur -17.2783 -9.86801 22.5964
rtibia 52.6234
rfoot -32.866 -17.104
rtoes -50.2513
lfemur -67.5062 13.0695 -19.0686
ltibia 98.1596
lfoot -10.8134 -2.86964
ltoes -12.7095
19
root 17.207 14.7166 35.9218 -157.091 -23.8658 181.575
lowerback 18.0281 3.48829 3.65091
upperback -0.987789 5.31111 -0.454524
thorax -10.8351 2.25329 -3.97913
lowerneck -16.6295 -4.5006 -5.68057
upperneck 12.0546 -4.18897 -5.5726
head 6.41081 -2.87192 -1.32505
rclavicle 2.38542e-014 1.98785e-014
rhumerus -13.3907 26.1013 -77.2795
rradius 96.9196
rwrist -1.05336
rhand -21.0133 2.8179
rfingers 7.12502
rthumb 5.36147 -27.0943
lclavicle 2.38542e-014 1.98785e-014
lhumerus -59.1422 -0.646526 54.5611
lradius 63.5812
lwrist 8.0845
lhand -20.099 -2.92847
lfingers 7.12502
lthumb 6.24424 26.9595
rfemur -13.9017 -9.69465 23.1059
rtibia 49.8545
rfoot -30.3333 -17.6912
rtoes -51.68
lfemur -70.2314 13.0689 -19.5125
ltibia 97.0398
lfoot -11.2858 -3.34288
ltoes -13.6857
20
root 17.1271 14.7111 35.4639 -157.528 -24.9252 181.562
lowerback 17.6876 3.71144 3.35186
upperback -1.01259 5.49779 -0.839667
thorax -10.6402 2.35917 -4.25252
lowerneck -16.3401 -5.09445 -6.33376
upperneck 12.9668 -4.93052 -4.75434
head 6.69278 -3.20432 -1.04918
rclavicle -9.54166e-015 -9.54166e-015
rhumerus -13.4017 26.4341 -76.1106
rradius 99.3921
rwrist -0.4955
rhand -21.7124 3.54298
rfingers 7.12502
rthumb 4.68645 -26.3852
lclavicle -9.54166e-015 -9.54166e-015
lhumerus -59.913 -2.27209 51.8197
lradius 65.4162
lwrist 7.96275
lhand -19.6923 -3.06752
lfingers 7.12502
lthumb 6.63683 26.8085
rfemur -10.2805 -9.45089 23.6161
rtibia 46.801
rfoot -28.2918 -17.1172
rtoes -52.0664
lfemur -72.5397 12.8635 -20.0275
ltibia 95.522
lfoot -11.7066 -3.85354
ltoes -14.1057
21
root 17.0346 14.7124 34.996 -157.839 -26.0879 181.418
lowerback 17.0829 3.90483 3.07884
upperback -0.913306 5.63079 -1.29742
thorax -10.1501 2.44896 -4.57
lowerneck -15.9363 -5.64718 -6.90029
upperneck 13.659 -5.66595 -4.00469
head 6.89215 -3.52838 -0.80178
rclavicle 4.1546e-014 6.75868e-015
rhumerus -13.5236 26.895 -74.7622
rradius 101.687
rwrist -0.833664
rhand -23.3591 3.85498
rfingers 7.12502
rthumb 3.09627 -26.1023
lclavicle 4.1546e-014 6.75868e-015
lhumerus -60.2892 -4.00192 49.3516
lradius 67.2154
lwrist 8.88301
lhand -19.5603 -2.84959
lfingers 7.12502
lthumb 6.76431 27.0224
rfemur -6.66961 -9.32948 24.0096
rtibia 43.5953
rfoot -26.0477 -16.1468
rtoes -52.5699
lfemur -74.6625 12.4334 -20.7831
ltibia 93.6028
lfoot -12.1288 -4.29873
ltoes -14.7097
